<?xml version="1.0" encoding="utf-8"?>
<!-- Generator: Adobe Illustrator 25.4.1, SVG Export Plug-In . SVG Version: 6.00 Build 0)  -->
<svg version="1.1" id="Layer_1" xmlns="http://www.w3.org/2000/svg" xmlns:xlink="http://www.w3.org/1999/xlink" x="0px" y="0px"
	 viewBox="0 0 107.5 70.7" style="enable-background:new 0 0 107.5 70.7;" xml:space="preserve">
<style type="text/css">
	.st0{fill:#FFFF00;}
	.st1{fill:#574A10;}
</style>
<g>
	<g>
		<g>
			<g>
				<path class="st0" d="M48.9,1.7C44.6,1.5,40.3,1.5,36,1.5c-8.6,0.2-17.7,1-24.6,6.5C4.3,13.6,0.9,23.7,1.9,33.1s6.1,18,13,24
					s15.5,9.4,24.2,11c11.8,2.2,24.2,0.9,35.5-3.3c5.7-2.1,11.2-5,16.2-8.6c5.3-3.8,8.9-7.9,11.8-14c1.4-3.1,2.5-6.3,2.9-9.7
					c0.9-6.4-0.5-13.3-4.5-18.2c-5-6.2-13.1-8.2-20.7-9.5C69.9,3.1,59.4,2,48.9,1.7z"/>
			</g>
			<g>
				<path class="st1" d="M105.6,21c-1.3-4.2-3.7-7.8-7.2-10.5c-3.3-2.5-7.3-4.1-11.3-5.1c-4.6-1.2-9.4-1.9-14.2-2.5
					C67.6,2,62.2,1.5,56.8,1.1c-2.6-0.2-5.3-0.3-7.9-0.4c-5.2-0.2-10.5-0.2-15.7,0C28.8,0.8,24.3,1.3,20,2.6
					c-4.2,1.3-8.1,3.4-11.2,6.5c-2.9,2.9-5,6.6-6.4,10.5c-2.8,8.3-1.9,17.3,1.8,25.1C8,52.8,14.7,59.3,22.6,63.5
					c8.4,4.5,18.1,6.6,27.7,6.6c10.2,0.1,20.3-2.2,29.5-6.4c8.1-3.7,16.2-8.8,21.2-16.4C105.9,39.8,108.4,29.9,105.6,21z M102,41.2
					c-1.7,3.7-3.9,7.1-6.7,10c-3.1,3.1-6.7,5.6-10.5,7.7c-16.4,9.5-37,12.2-55,5.7c-8.1-3-15.6-8.1-20.6-15.2
					C4.4,42.6,1.9,34.2,3,25.9c1.1-8,5.3-15.5,12.6-19.4c7.8-4.2,17.2-4,25.8-4c2.5,0,5,0.1,7.6,0.1C59.2,3,69.6,4.1,79.8,5.8
					c7.7,1.3,16.4,3.3,21.2,10.1C106.2,23.3,105.6,33.3,102,41.2z"/>
			</g>
		</g>
	</g>
	<path class="st1" d="M56.7,35.3l11.9-11.9c0.8-0.8,0.8-2.1,0-2.9c-0.8-0.8-2.1-0.8-2.9,0L53.8,32.5L41.9,20.6
		c-0.8-0.8-2.1-0.8-2.9,0c-0.8,0.8-0.8,2.1,0,2.9l11.9,11.9L39,47.2c-0.8,0.8-0.8,2.1,0,2.9c0.4,0.4,0.9,0.6,1.4,0.6
		c0.5,0,1-0.2,1.4-0.6l11.9-11.9l11.9,11.9c0.4,0.4,0.9,0.6,1.4,0.6s1-0.2,1.4-0.6c0.8-0.8,0.8-2.1,0-2.9L56.7,35.3z"/>
</g>
<path class="st1" d="M-1508.8,1837.3c0-0.1,0.1-0.2,0.1-0.4C-1508.7,1836.9-1508.7,1837.1-1508.8,1837.3
	C-1508.8,1837.3-1508.8,1837.3-1508.8,1837.3z"/>
<path class="st1" d="M-1514.8,1841.8c0,0,0.1,0,0.1,0c0,0,0,0,0,0C-1514.7,1841.8-1514.8,1841.8-1514.8,1841.8z"/>
<path class="st1" d="M-1518.4,1841.3c0.1,0.1,0.2,0.1,0.3,0.2c0,0,0.1,0,0.1,0C-1518.2,1841.3-1518.3,1841.2-1518.4,1841.3z"/>
<path class="st1" d="M-1510,1829.9C-1510,1829.9-1510,1829.9-1510,1829.9c0,0.1,0.1,0.2,0.2,0.3
	C-1509.9,1830.1-1509.9,1830-1510,1829.9z"/>
<path class="st1" d="M-1508.3,1835.5c0,0,0-0.1,0-0.1c-0.1,0.4-0.1,0.5-0.1,0.4C-1508.3,1835.7-1508.3,1835.6-1508.3,1835.5
	C-1508.3,1835.5-1508.3,1835.5-1508.3,1835.5z"/>
</svg>
